<?xml version="1.0" encoding="UTF-8" standalone="no"?>
<!-- Created with Inkscape (http://www.inkscape.org/) -->

<svg
   width="197.51036mm"
   height="197.50885mm"
   viewBox="0 0 197.51036 197.50885"
   version="1.1"
   id="svg1"
   xml:space="preserve"
   xmlns="http://www.w3.org/2000/svg"
   xmlns:svg="http://www.w3.org/2000/svg"><defs
     id="defs1" /><g
     id="layer1"
     transform="translate(-6.2556091,-49.73423)"><path
       d="m 107.11594,51.739478 c -0.58437,-0.01471 -1.35008,0.0086 -2.11615,0.01344 v 55.069512 a 41.677723,41.677723 0 0 1 41.67756,41.67755 h 55.06899 c 0.005,-0.76615 0.0292,-1.53221 0.0145,-2.11667 -0.0974,-3.87066 -0.42702,-7.73192 -0.98702,-11.56312 -0.16907,-1.15666 -1.26149,-2.26232 -2.41122,-2.47374 -8.09847,-1.48914 -15.82519,-2.915 -21.80952,-4.04368 -1.14875,-0.21666 -2.34678,-1.30352 -2.7125,-2.4138 -1.14735,-3.48326 -2.55796,-6.87414 -4.21938,-10.14357 -0.52957,-1.04212 -0.45432,-2.65676 0.20361,-3.62303 3.42895,-5.03607 7.87998,-11.51882 12.54962,-18.310003 0.66233,-0.963256 0.64837,-2.515125 -0.0543,-3.449402 -5.48524,-7.294041 -11.97477,-13.775997 -19.27531,-19.252572 -0.93511,-0.701481 -2.48694,-0.713612 -3.4494,-0.05013 -6.80997,4.694539 -13.30616,9.166509 -18.3472,12.607499 -0.96551,0.65905 -2.58198,0.739492 -3.62666,0.214974 -3.24764,-1.6306 -6.61363,-3.014322 -10.06915,-4.139282 -1.11154,-0.361867 -2.20035,-1.556787 -2.41846,-2.705261 -1.13992,-6.002631 -2.58349,-13.76978 -4.09225,-21.920109 -0.21279,-1.149467 -1.31945,-2.240432 -2.47634,-2.408122 -3.79379,-0.549908 -7.6172,-0.874025 -11.44943,-0.970483 z"
       style="fill:#808080;fill-opacity:1;stroke:#000000;stroke-width:4;stroke-linejoin:round;stroke-dasharray:none;stroke-opacity:1"
       id="path23" /><path
       d="M 63.322233,148.49998 H 8.2671956 c -2.282e-4,0.76589 -0.023175,1.53156 -0.00103,2.11563 0.1473816,3.88849 0.5295809,7.76505 1.1435995,11.60756 0.1844573,1.15434 1.2883759,2.25766 2.4380949,2.4691 8.336427,1.53316 16.241679,2.99327 22.289078,4.13618 1.148662,0.21709 2.344113,1.30461 2.706812,2.41588 1.065114,3.26339 2.360782,6.44711 3.877799,9.52655 0.516581,1.04862 0.431287,2.66895 -0.226342,3.63544 -3.450637,5.0712 -7.973467,11.6603 -12.743409,18.59783 -0.662307,0.96327 -0.648749,2.51569 0.05323,3.45043 5.496608,7.31923 12.003413,13.82204 19.326468,19.31355 0.935229,0.70132 2.487435,0.71309 3.449919,0.0496 6.912043,-4.76465 13.480299,-9.28511 18.540987,-12.73772 0.965665,-0.65882 2.584504,-0.74299 3.631819,-0.22376 3.103606,1.53866 6.313823,2.85218 9.605616,3.93102 1.110821,0.36407 2.199041,1.56046 2.417423,2.70888 1.146022,6.02666 2.60724,13.88592 4.140316,22.16661 0.21281,1.14946 1.317246,2.25326 2.471684,2.43706 3.805653,0.60589 7.644175,0.98399 11.49491,1.13223 0.58406,0.0225 1.34975,2.9e-4 2.11563,5.2e-4 V 190.17754 A 41.677723,41.677723 0 0 1 63.322233,148.49998 Z"
       style="fill:#808080;fill-opacity:1;stroke:#000000;stroke-width:4;stroke-linejoin:round;stroke-dasharray:none;stroke-opacity:1"
       id="path22" /><path
       d="m -392.97291,-113.47631 0,27.715682 a 8,8 45 0 0 8,8 h 2.14824 a 8,8 135 0 0 8,-8 l 0,-13.567432 a 4,4 135 0 1 4,-4 l 53.39754,0 a 3.0964518,3.0964518 45 0 1 3.09645,3.09645 v 7.993068 a 6.9281906,6.9281906 120.00005 0 1 -3.4641,5.999995 l -71.71403,41.403957 a 6.9281906,6.9281906 120.00005 0 0 -3.4641,5.999995 v 6.148763 a 8,8 45 0 0 8,8 l 80.79047,0 a 8,8 135 0 0 8,-8 v -2.148763 a 8,8 45 0 0 -8,-8 h -48.49295 a 1.0718077,1.0718077 74.999854 0 1 -0.53591,-2.000018 l 50.10068,-28.92598 a 13.856488,13.856488 119.99985 0 0 6.92818,-12.000035 v -27.715682 a 8,8 45 0 0 -8,-8 h -80.79047 a 8,8 135 0 0 -8,8 z"
       style="display:inline;fill:#79a76a;fill-opacity:1;stroke:#000000;stroke-width:3.99992;stroke-linecap:round;stroke-linejoin:round;stroke-dasharray:none;stroke-opacity:1"
       id="path4"
       transform="matrix(0.9331579,0,0,0.93038301,374.97783,164.79214)" /><path
       d="M -392.97291,17.349817 V 98.14029 a 8,8 45 0 0 8,8 h 40.39512 a 48.395346,48.395346 135 0 0 48.39535,-48.395346 48.395237,48.395237 44.99987 0 0 -48.39535,-48.3951271 h -40.39512 a 8,8 135 0 0 -8,8.0000001 z m 22.14876,10.148763 h 26.24637 a 30.246583,30.246583 45 0 1 30.24658,30.246583 30.246474,30.246474 135.00021 0 1 -30.24658,30.246365 h -26.24637 a 4,4 45 0 1 -4,-4 V 31.49858 a 4,4 135 0 1 4,-4 z"
       style="display:inline;opacity:1;fill:#79a76a;fill-opacity:1;stroke:#000000;stroke-width:4;stroke-linecap:round;stroke-linejoin:round;stroke-dasharray:none;stroke-opacity:1"
       id="path5"
       transform="matrix(0.93038244,0,0,0.93177302,477.02277,146.26227)" /></g></svg>
