<?xml version="1.0" encoding="UTF-8" standalone="no"?>
<!-- Created with Inkscape (http://www.inkscape.org/) -->

<svg
   width="197.51036mm"
   height="197.50887mm"
   viewBox="0 0 197.51036 197.50887"
   version="1.1"
   id="svg1"
   xml:space="preserve"
   inkscape:version="1.3.1 (91b66b0783, 2023-11-16)"
   sodipodi:docname="COG2dlogo.svg"
   xmlns:inkscape="http://www.inkscape.org/namespaces/inkscape"
   xmlns:sodipodi="http://sodipodi.sourceforge.net/DTD/sodipodi-0.dtd"
   xmlns="http://www.w3.org/2000/svg"
   xmlns:svg="http://www.w3.org/2000/svg"><sodipodi:namedview
     id="namedview1"
     pagecolor="#ffffff"
     bordercolor="#000000"
     borderopacity="0.25"
     inkscape:showpageshadow="2"
     inkscape:pageopacity="0.0"
     inkscape:pagecheckerboard="0"
     inkscape:deskcolor="#d1d1d1"
     inkscape:document-units="mm"
     inkscape:zoom="0.70710678"
     inkscape:cx="453.96255"
     inkscape:cy="553.66461"
     inkscape:window-width="1920"
     inkscape:window-height="1017"
     inkscape:window-x="-8"
     inkscape:window-y="-8"
     inkscape:window-maximized="1"
     inkscape:current-layer="layer1" /><defs
     id="defs1"><inkscape:path-effect
       effect="fillet_chamfer"
       id="path-effect42-6"
       is_visible="true"
       lpeversion="1"
       nodesatellites_param="F,0,1,1,0,15.67829,0,1 @ F,0,0,1,0,4.8271463,0,1 @ F,0,0,1,0,4.8271463,0,1 @ F,0,0,1,0,4.8271463,0,1 @ F,0,0,1,0,4.8271463,0,1 @ F,0,0,1,0,4.8271463,0,1 @ F,0,0,1,0,4.8271463,0,1 @ F,0,0,1,0,4.8271463,0,1 @ F,0,0,1,0,4.8271463,0,1 @ F,0,0,1,0,4.8271463,0,1 @ F,0,0,1,0,4.8271463,0,1 @ F,0,0,1,0,4.8271463,0,1 @ F,0,1,1,0,15.67829,0,1"
       radius="0"
       unit="px"
       method="auto"
       mode="F"
       chamfer_steps="1"
       flexible="false"
       use_knot_distance="true"
       apply_no_radius="true"
       apply_with_radius="true"
       only_selected="false"
       hide_knots="false" /><inkscape:path-effect
       effect="fillet_chamfer"
       id="path-effect43-1"
       is_visible="true"
       lpeversion="1"
       nodesatellites_param="F,0,0,1,0,4.6254163,0,1 @ F,0,1,1,0,4.6254163,0,1 @ F,0,0,1,0,48.395385,0,1 @ F,0,0,1,0,48.395385,0,1 | F,0,0,1,0,3.5174736,0,1 @ F,0,0,1,0,35.497283,0,1 @ F,0,0,1,0,35.497283,0,1 @ F,0,0,1,0,3.5174736,0,1"
       radius="0"
       unit="px"
       method="auto"
       mode="F"
       chamfer_steps="1"
       flexible="false"
       use_knot_distance="true"
       apply_no_radius="true"
       apply_with_radius="true"
       only_selected="false"
       hide_knots="false" /></defs><g
     inkscape:label="Livello 1"
     inkscape:groupmode="layer"
     id="layer1"
     transform="translate(-6.2556092,-49.734232)"><circle
       style="fill:none;stroke:#0062ff;stroke-width:0.301001;stroke-linejoin:round"
       id="path1"
       cx="105"
       cy="148.5"
       r="96.640045" /><path
       style="fill:none;stroke:#0062ff;stroke-width:0.301001;stroke-linejoin:round"
       d="M 105,51.859955 V 148.5 l 0.0486,96.64003"
       id="path2" /><path
       style="fill:none;stroke:#0062ff;stroke-width:0.301001;stroke-linejoin:round"
       d="M 8.3599548,148.5 H 105 201.64005"
       id="path3" /><path
       d="m 107.11594,51.739478 c -0.58437,-0.01471 -1.35008,0.0086 -2.11615,0.01344 v 55.069512 a 41.677723,41.677723 0 0 1 41.67756,41.67755 h 55.06899 c 0.005,-0.76615 0.0292,-1.53221 0.0145,-2.11667 -0.0974,-3.87066 -0.42702,-7.73192 -0.98702,-11.56312 -0.16907,-1.15666 -1.26149,-2.26232 -2.41122,-2.47374 -8.09847,-1.48914 -15.82519,-2.915 -21.80952,-4.04368 -1.14875,-0.21666 -2.34678,-1.30352 -2.7125,-2.4138 -1.14735,-3.48326 -2.55796,-6.87414 -4.21938,-10.14357 -0.52957,-1.04212 -0.45432,-2.65676 0.20361,-3.62303 3.42895,-5.03607 7.87998,-11.51882 12.54962,-18.310003 0.66233,-0.963256 0.64837,-2.515125 -0.0543,-3.449402 -5.48524,-7.294041 -11.97477,-13.775997 -19.27531,-19.252572 -0.93511,-0.701481 -2.48694,-0.713612 -3.4494,-0.05013 -6.80997,4.694539 -13.30616,9.166509 -18.3472,12.607499 -0.96551,0.65905 -2.58198,0.739492 -3.62666,0.214974 -3.24764,-1.6306 -6.61363,-3.014322 -10.06915,-4.139282 -1.11154,-0.361867 -2.20035,-1.556787 -2.41846,-2.705261 -1.13992,-6.002631 -2.58349,-13.76978 -4.09225,-21.920109 -0.21279,-1.149467 -1.31945,-2.240432 -2.47634,-2.408122 -3.79379,-0.549908 -7.6172,-0.874025 -11.44943,-0.970483 z"
       style="fill:#808080;fill-opacity:1;stroke:#000000;stroke-width:4;stroke-linejoin:round;stroke-dasharray:none;stroke-opacity:1"
       id="path23" /><path
       d="M 63.322233,148.49998 H 8.2671956 c -2.282e-4,0.76589 -0.023175,1.53156 -0.00103,2.11563 0.1473816,3.88849 0.5295809,7.76505 1.1435995,11.60756 0.1844573,1.15434 1.2883759,2.25766 2.4380949,2.4691 8.336427,1.53316 16.241679,2.99327 22.289078,4.13618 1.148662,0.21709 2.344113,1.30461 2.706812,2.41588 1.065114,3.26339 2.360782,6.44711 3.877799,9.52655 0.516581,1.04862 0.431287,2.66895 -0.226342,3.63544 -3.450637,5.0712 -7.973467,11.6603 -12.743409,18.59783 -0.662307,0.96327 -0.648749,2.51569 0.05323,3.45043 5.496608,7.31923 12.003413,13.82204 19.326468,19.31355 0.935229,0.70132 2.487435,0.71309 3.449919,0.0496 6.912043,-4.76465 13.480299,-9.28511 18.540987,-12.73772 0.965665,-0.65882 2.584504,-0.74299 3.631819,-0.22376 3.103606,1.53866 6.313823,2.85218 9.605616,3.93102 1.110821,0.36407 2.199041,1.56046 2.417423,2.70888 1.146022,6.02666 2.60724,13.88592 4.140316,22.16661 0.21281,1.14946 1.317246,2.25326 2.471684,2.43706 3.805653,0.60589 7.644175,0.98399 11.49491,1.13223 0.58406,0.0225 1.34975,2.9e-4 2.11563,5.2e-4 V 190.17754 A 41.677723,41.677723 0 0 1 63.322233,148.49998 Z"
       style="fill:#808080;fill-opacity:1;stroke:#000000;stroke-width:4;stroke-linejoin:round;stroke-dasharray:none;stroke-opacity:1"
       id="path22"
       inkscape:export-filename="2Dcoglogo64.png"
       inkscape:export-xdpi="8.2304544"
       inkscape:export-ydpi="8.2304544" /><rect
       style="display:none;fill:#550000;fill-opacity:1;stroke:none;stroke-width:0.301001;stroke-linejoin:round"
       id="rect8"
       width="96.790543"
       height="96.790543"
       x="8.2094545"
       y="51.709454" /><rect
       style="display:none;fill:#550000;fill-opacity:1;stroke:none;stroke-width:0.301001;stroke-linejoin:round"
       id="rect9"
       width="96.790543"
       height="96.790543"
       x="-201.79054"
       y="148.5"
       transform="scale(-1,1)" /><path
       d="m -272.43869,-105.79827 v 22.274384 a 4.8271463,4.8271463 45 0 0 4.82715,4.827146 h 2.4447 a 4.8271463,4.8271463 135 0 0 4.82715,-4.827146 v -21.027034 a 4.8271297,4.8271297 135.0001 0 1 4.82715,-4.82713 l 62.93819,2.1e-4 a 4.8271629,4.8271629 45.000099 0 1 4.82715,4.82717 v 14.041932 c 0,2.665959 -1.87166,5.907716 -4.18046,7.240672 -25.4437,14.689585 -50.8871,29.379693 -76.33059,44.069642 -2.30878,1.332989 -4.18042,4.574776 -4.18042,7.240735 v 2.444711 a 4.8271463,4.8271463 45 0 0 4.82715,4.827146 l 87.13618,0 a 4.8271463,4.8271463 135 0 0 4.82715,-4.827146 v -2.444711 a 4.8271463,4.8271463 45 0 0 -4.82715,-4.827146 h -62.93869 a 1.2934318,1.2934318 74.999979 0 1 -0.64672,-2.413576 l 64.23213,-37.084501 a 8.3608697,8.3608697 119.99998 0 0 4.18043,-7.240722 v -22.274386 a 15.67833,15.67833 45.000074 0 0 -15.67829,-15.67833 l -65.43392,-1.7e-4 a 15.67825,15.67825 135.00007 0 0 -15.67829,15.67825 z"
       style="fill:#79a76a;fill-opacity:1;stroke:#000000;stroke-width:4;stroke-linejoin:round;stroke-opacity:1"
       id="path39-4"
       sodipodi:nodetypes="cccccccccccccc"
       inkscape:path-effect="#path-effect42-6"
       inkscape:original-d="m -272.43869,-121.47656 v 42.77982 h 12.099 v -30.68133 l 72.59249,2.5e-4 v 23.696228 c -28.23071,16.29854 -56.46102,32.597769 -84.69147,48.896757 v 12.099003 h 96.79048 v -12.099003 h -72.59299 l 72.59299,-41.911653 v -42.779822 z"
       transform="matrix(0.93314715,0,0,0.93314715,262.49795,165.12803)"
       inkscape:export-filename="2Dcoglogo512.png"
       inkscape:export-xdpi="65.843636"
       inkscape:export-ydpi="65.843636" /><path
       id="path1-1-4"
       style="fill:#79a76a;fill-opacity:1;stroke:#000000;stroke-width:4;stroke-linejoin:round;stroke-opacity:1"
       d="m -411.24001,42.412774 v 87.539636 a 4.6254163,4.6254163 45 0 0 4.62542,4.62542 h 43.76967 a 48.395385,48.395385 135 0 0 48.39538,-48.395385 48.395236,48.395236 44.999824 0 0 -48.39538,-48.395087 h -43.76967 a 4.6254163,4.6254163 135 0 0 -4.62542,4.625416 z m 15.61647,7.473587 h 33.57772 a 35.497283,35.497283 45 0 1 35.49728,35.497283 v 1.597903 a 35.497283,35.497283 135 0 1 -35.49728,35.497283 h -33.57772 a 3.5174736,3.5174736 45 0 1 -3.51747,-3.51747 V 53.403835 a 3.5174736,3.5174736 135 0 1 3.51747,-3.517474 z"
       sodipodi:nodetypes="cccccccccc"
       inkscape:path-effect="#path-effect43-1"
       inkscape:original-d="m -411.24001,37.787358 v 96.790472 h 96.79047 V 37.787358 Z m 12.099,12.099003 h 72.59247 v 72.592469 h -72.59247 z"
       transform="matrix(0.93314719,0,0,0.93314719,495.15513,119.64651)" /></g></svg>
