<svg version="1.1" xmlns="http://www.w3.org/2000/svg" xmlns:xlink="http://www.w3.org/1999/xlink" width="67.78676" height="68.06663" viewBox="0,0,67.78676,68.06663"><g transform="translate(-207.8852,-145.21674)"><g data-paper-data="{&quot;isPaintingLayer&quot;:true}" fill-rule="nonzero" stroke="#000000" stroke-width="2.5" stroke-linejoin="miter" stroke-miterlimit="10" stroke-dasharray="" stroke-dashoffset="0" style="mix-blend-mode: normal"><path d="M242.89419,198.47612c0,0 4.80431,2.3972 11.03793,-1.6522c4.3855,-2.50365 5.84479,-7.29889 6.79002,-15.20708c-0.64686,-11.43158 -3.06134,-13.16148 -6.22545,-15.81002c-6.09935,-5.10549 -12.96399,-2.39742 -12.96399,-2.39742l0.11243,-7.02738l-3.5111,-8.51742l14.97794,0.40949l-1.39805,7.26521c0,0 1.8653,-0.14674 3.37105,0.72757c1.50575,0.87431 2.71248,1.88405 2.71248,1.88405l2.98143,-6.86523l9.55828,9.80034l-5.01128,5.45874c0,0 1.54177,2.24538 2.00149,3.39629c0.36297,0.90868 0.97427,4.55131 0.97427,4.55131l6.00645,-2.10208l-1.04829,16.94165l-5.40063,-2.09963c0,0 -0.92268,3.55956 -1.23662,4.32971c-0.34366,0.84304 -2.17149,3.38676 -2.17149,3.38676l5.68216,4.17307c0,0 -3.63254,4.82701 -3.84439,5.12205c-0.84306,1.17413 -4.79413,5.92469 -4.79413,5.92469l-3.28685,-7.50219c0,0 -1.23309,1.22811 -2.81104,2.25667c-0.13414,0.01995 -2.53548,0.94321 -2.53548,0.94321l1.2126,5.70781l-7.46388,0.21313l-3.71585,-13.31111z" fill="#c2c2c2" stroke-linecap="round"/><path d="M239.32848,206.31888v-42.63255h6.91717v42.63255z" fill="#c2c2c2" stroke-linecap="butt"/><path d="M238.88954,180.08054c-7.5299,9.73564 -17.15673,20.81943 -17.15673,20.81943l24.87507,-1.27228l-0.15351,12.16754l-37.3195,0.23057c0,0 -0.18206,-7.88509 2.25734,-11.77513c4.34181,-6.92373 24.93135,-28.163 26.41697,-30.07098c1.48562,-1.90798 -0.07333,-7.2302 -0.07333,-7.2302c0,0 -0.38801,-6.19609 -10.15369,-7.04127c-8.45154,-0.73144 -9.36513,5.6616 -9.36513,5.6616l-0.09858,5.24275c0,0 -3.22365,0 -4.72866,0c-1.37489,0 -3.94637,0 -3.94637,0l0.0933,-3.83716c0,0 0.42061,-16.05904 18.26451,-16.50854c19.35812,0.15982 18.32196,10.81043 18.20584,20.05749c-0.0792,6.3079 0.73106,3.4085 -7.11753,13.55618z" fill="#79a76a" stroke-linecap="round"/></g></g></svg>