<svg version="1.1" xmlns="http://www.w3.org/2000/svg" xmlns:xlink="http://www.w3.org/1999/xlink" width="93.85877" height="68.06436" viewBox="0,0,93.85877,68.06436"><g transform="translate(-193.14634,-145.97046)"><g data-paper-data="{&quot;isPaintingLayer&quot;:true}" fill-rule="nonzero" stroke="#000000" stroke-width="2.5" stroke-linejoin="miter" stroke-miterlimit="10" stroke-dasharray="" stroke-dashoffset="0" style="mix-blend-mode: normal"><path d="M241.64344,199.22978c0,0 6.72384,2.3972 15.44808,-1.6522c6.13771,-2.50365 8.18005,-7.29888 9.50295,-15.20707c-0.90533,-11.43159 -4.2845,-13.16149 -8.71281,-15.81003c-8.53632,-5.10549 -18.1437,-2.39742 -18.1437,-2.39742l0.15735,-7.02738l-4.91395,-8.51742l20.96231,0.40949l-1.95664,7.26521c0,0 2.61058,-0.14674 4.71794,0.72757c2.10736,0.87431 3.79624,1.88405 3.79624,1.88405l4.17265,-6.86523l13.37724,9.80033l-7.01351,5.45874c0,0 2.15777,2.24538 2.80117,3.39629c0.50799,0.90869 1.36354,4.55132 1.36354,4.55132l8.40631,-2.10209l-1.46714,16.94165l-7.55844,-2.09962c0,0 -1.29133,3.55956 -1.73071,4.32971c-0.48097,0.84304 -3.03909,3.38676 -3.03909,3.38676l7.95245,4.17307c0,0 -5.08392,4.82703 -5.38041,5.12206c-1.1799,1.17413 -6.70961,5.92468 -6.70961,5.92468l-4.6001,-7.50219c0,0 -1.72577,1.22811 -3.93418,2.25666c-0.18773,0.01995 -3.54852,0.94322 -3.54852,0.94322l1.69709,5.70781l-10.44604,0.21313l-5.20049,-13.31111z" fill="#c2c2c2" stroke-linecap="round"/><path d="M235.83395,207.07254v-38.7236h9.6809v38.7236z" fill="#c2c2c2" stroke-linecap="butt"/><path d="M246.00004,167.27803c-0.11085,6.3079 1.02315,3.4085 -9.96131,13.55618c-10.53844,9.73564 -24.01163,20.81943 -24.01163,20.81943l34.81379,-1.27228l-0.21485,12.16754l-52.23035,0.23057c0,0 -0.2548,-7.88509 3.15926,-11.77513c6.07656,-6.92374 34.89256,-28.163 36.97176,-30.07098c2.0792,-1.90798 -0.10263,-7.2302 -0.10263,-7.2302c0,0 -0.54304,-6.1961 -14.21056,-7.04128c-11.8283,-0.73144 -13.10692,5.6616 -13.10692,5.6616l-0.13797,5.24275h-12.1411l0.13058,-3.83716c0,0 0.58867,-16.05904 25.56202,-16.50854c27.09258,0.15982 25.64241,10.81043 25.4799,20.05749z" fill="#79a76a" stroke-linecap="round"/></g></g></svg>